PathFileType	4	(X/Y/Z)	G:/My Drive/Project Folder - EPSRC SCI-FES/EPSRC-SCI-FES/Technical/Trial Tests/04122019 - Marker Volunteer01/Rosti Data/New Session 101.trc	
DataRate	CameraRate	NumFrames	NumMarkers	Units	OrigDataRate	OrigDataStartFrame	OrigNumFrames	
100.00	100.00	11	14	mm	100.00	169	337	
Frame#	Time	C7			PX			T8			IJ			SC			AC			AI			TS			AA			GH			LE			ME			US			RS			
		X1	Y1	Z1	X2	Y2	Z2	X3	Y3	Z3	X4	Y4	Z4	X5	Y5	Z5	X6	Y6	Z6	X7	Y7	Z7	X8	Y8	Z8	X9	Y9	Z9	X10	Y10	Z10	X11	Y11	Z11	X12	Y12	Z12	X13	Y13	Z13	X14	Y14	Z14	

169	1.680	666.36157	-17.32438	1540.14136	444.46677	-36.90241	1289.81433	745.80164	-8.01123	1325.88147	508.54578	-38.51023	1432.25476	512.32916	-13.56978	1440.84583	579.96588	130.04259	1486.34631	709.46259	69.23817	1464.23315	742.16107	74.22089	1346.35291	649.67761	182.26569	1444.53894	610.23108	193.24052	1458.88672	540.30524	282.85904	1185.14905	507.66385	200.39313	1147.33630	450.12741	370.65958	936.05408	395.90924	406.64700	982.70239 
170	1.690	666.35266	-17.29702	1540.16760	444.45352	-36.89223	1289.76343	745.76556	-8.03039	1325.95337	508.48624	-38.51168	1432.24280	512.27051	-13.58426	1440.84143	579.88818	130.05499	1486.33167	709.37720	69.24335	1464.26355	742.07660	74.23375	1346.37964	649.61371	182.25563	1444.53906	610.15894	193.23122	1458.86646	540.31494	282.86017	1185.10364	507.80783	200.36275	1147.28247	450.15991	370.65598	936.01453	395.93320	406.65128	982.67548 
171	1.700	666.33179	-17.26468	1540.19031	444.43793	-36.88326	1289.71533	745.72614	-8.03759	1326.02136	508.42694	-38.51924	1432.24011	512.21161	-13.59834	1440.84241	579.80109	130.06848	1486.31335	709.28497	69.26054	1464.28833	741.98663	74.25208	1346.40710	649.53632	182.25839	1444.53662	610.06586	193.21524	1458.83728	540.31818	282.85992	1185.05493	507.94513	200.33522	1147.22754	450.21506	370.67035	935.97290	395.96667	406.66690	982.63916 
172	1.710	666.30780	-17.22871	1540.20789	444.42090	-36.87723	1289.67151	745.68677	-8.03395	1326.07544	508.36990	-38.53151	1432.24695	512.15515	-13.61140	1440.84888	579.70959	130.08253	1486.29248	709.19696	69.28102	1464.31226	741.89825	74.27496	1346.43591	649.45447	182.27347	1444.53687	609.95801	193.19507	1458.80237	540.31482	282.85825	1185.01208	508.06848	200.31178	1147.17346	450.28824	370.69785	935.92920	396.00955	406.68851	982.59589 
173	1.720	666.29572	-17.19133	1540.22314	444.40289	-36.87529	1289.63293	745.64880	-8.02345	1326.12134	508.31628	-38.54650	1432.26306	512.10327	-13.62350	1440.86108	579.61835	130.09700	1486.27075	709.11652	69.29875	1464.33948	741.81732	74.30130	1346.46643	649.37384	182.29561	1444.54187	609.84546	193.17651	1458.76685	540.30420	282.85764	1184.98389	508.17047	200.29327	1147.12219	450.37796	370.73575	935.88397	396.05783	406.70804	982.55139 
174	1.730	666.30994	-17.15391	1540.24023	444.38416	-36.87688	1289.59888	745.61108	-8.01041	1326.17200	508.26660	-38.56165	1432.28638	512.05731	-13.63490	1440.87891	579.53094	130.11218	1486.24951	709.04034	69.31116	1464.37146	741.74689	74.32998	1346.49854	649.29816	182.31938	1444.55042	609.73816	193.16580	1458.73608	540.28711	282.85889	1184.97144	508.24414	200.28021	1147.07581	450.48245	370.78159	935.83801	396.10837	406.72220	982.50836 
175	1.740	666.35675	-17.11567	1540.25977	444.36499	-36.87959	1289.56714	745.56732	-7.99805	1326.22656	508.22076	-38.57368	1432.31445	512.01746	-13.64556	1440.90198	579.44977	130.12877	1486.22986	708.96558	69.31757	1464.40344	741.68750	74.35999	1346.53162	649.22845	182.34311	1444.55786	609.64197	193.16539	1458.71191	540.26733	282.86075	1184.96667	508.28369	200.27280	1147.03674	450.59637	370.83044	935.79163	396.16318	406.73471	982.46417 
176	1.750	666.43207	-17.07393	1540.27905	444.34601	-36.87984	1289.53528	745.51221	-7.98911	1326.27478	508.17853	-38.57903	1432.34424	511.98340	-13.65486	1440.92932	579.37592	130.14777	1486.21204	708.89465	69.32043	1464.42712	741.63831	74.39032	1346.56458	649.16449	182.36754	1444.55908	609.55859	193.17441	1458.69385	540.24988	282.86234	1184.95874	508.28476	200.27097	1147.00671	450.71295	370.87643	935.74493	396.22437	406.75131	982.41498 
177	1.760	666.52338	-17.02564	1540.29346	444.32770	-36.87405	1289.50208	745.45428	-7.98730	1326.31348	508.13974	-38.57438	1432.37280	511.95462	-13.66169	1440.96057	579.30969	130.17012	1486.19641	708.82983	69.32413	1464.43787	741.59747	74.42017	1346.59644	649.10626	182.39235	1444.55127	609.48822	193.19078	1458.68018	540.23749	282.86374	1184.94116	508.24496	200.27438	1146.98743	450.82706	370.91507	935.69812	396.28894	406.77258	982.36176 
178	1.770	666.61603	-16.96970	1540.30054	444.31000	-36.86005	1289.46826	745.40668	-7.99003	1326.34607	508.10455	-38.55742	1432.39856	511.93097	-13.66463	1440.99585	579.25116	130.19649	1486.18359	708.77100	69.33344	1464.43811	741.56323	74.44921	1346.62622	649.05505	182.41579	1444.53735	609.43085	193.21266	1458.67029	540.23071	282.86548	1184.91418	508.16394	200.28256	1146.98010	450.93607	370.94424	935.65143	396.35355	406.79538	982.30817 
179	1.780	666.69940	-16.90828	1540.30115	444.29260	-36.83761	1289.43652	745.37286	-7.99241	1326.37585	508.07364	-38.52734	1432.42078	511.91278	-13.66206	1441.03516	579.20007	130.22705	1486.17468	708.71985	69.34708	1464.43823	741.53394	74.47758	1346.65344	649.01172	182.43437	1444.52356	609.38666	193.23889	1458.66431	540.22839	282.86713	1184.88330	508.04340	200.29466	1146.98499	451.03949	370.96411	935.60529	396.41678	406.81631	982.25806 
